<?xml version="1.0" encoding="UTF-8"?>
<svg version="1.1" viewBox="0 0 1600 1600" width="1280" height="1280" xmlns="http://www.w3.org/2000/svg">
<path transform="translate(706,252)" d="m0 0 9 3 26 12 31 15 3 2 1 3v133l-2 15 8-2 57-10 100-20 77-15 85-17h7l13 4 10 5 23 11 24 13 5 5 2 5 1 21-1 7-1 2 1 7-10 14-11 14-9 12-16 21-14 19-10 13-16 21-15 20-16 21-14 19-16 21-10 13-12 16-10 13-28 38-9 10-1 5 14 6 28 11 27 13 23 13 21 13 19 14 17 14 15 14 17 17 7 8 12 15 12 17 12 21 10 21 9 24 7 25 4 23 2 19 1 29-2 31-3 22-6 29-8 29-7 20-12 25-15 26-14 19-11 13-7 8-13 13-11 9-10 7-25 15-22 12-20 8-28 8-31 6-28 3-15 1h-43l-67-2-31-3-24-4-22-6-19-7-16-8-14-8-14-11-21-21-8-11-9-15-8-19-5-17-4-21-1-9v-33l4-18 6-16 9-15 10-11 11-8 9-4 8-2v2l10-6h24l48 7 19 3 13 4 10 6 10 9 7 8 6 13 5 16 1 8v29l-4 18-10 18-11 13-6 4 2 5 9 8 18 10 15 5 11 1 23-4 23-7 18-8 18-11 11-9 14-14 13-18 9-16 9-19 7-20 6-25 4-29 1-16v-33l-2-24-4-17-7-19-8-17-10-17-10-15-11-14-11-12-8-8-11-9-15-12-17-11-22-12-17-7-12-3-18-3-40-10-18-4-6-1 1 16 1 44 5 30 3 10 2 4 6-2 16-10 10-9 5-6 14 2 46 11 9 4v60l-3 10-9 12-5 6-26 17-10 5-15 5-17 3-13 1h-12l-24-3-69-12-16-5-17-8-12-9-10-9-9-10-8-13-8-16-7-19-6-24-3-24-1-21 1-114 2-167-28 5h-10l-63-21-4-2-1-6 1-62 3-9 16-5 46-10 24-4 16-1 1-27v-64l-15-7-19-8-5-5v-19l1-17 38-19 23-11 58-29 19-9zm225 276-42 7-71 13-42 8-2 181v9l7-6 16-21 13-18 13-17 14-19 12-16 14-19 39-54 14-19 13-18 6-8 1-3z" fill="#54747E"/>
<path transform="translate(706,252)" d="m0 0h2l1 2v196l1 2 13-1 20-4 6-1 2 2-8 2-2 5h-2l3 11-3 1 1 11h2l1 7-1 2 3-1 2 5 5 6 7 3 8 3h14l25-3 65-11 30-4 20-2h22l2 2-1 1-16 3-9 2-29 6-17 4-32 6-60 11-62 11-11 1v129l-1 173v39l2 21 4 17 3 10 7 13 1 1v5l-5 2v4l4 3v2l5 1 9 3h20l7-2 6-2 10-4 6-2 2-4 6-1 1-3h2v-2l9-6 3-1 1-3 3-3 3-5 7-8 14 2 46 11 9 4v60l-3 10-9 12-5 6-26 17-10 5-15 5-17 3-13 1h-12l-24-3-69-12-16-5-17-8-12-9-10-9-9-10-8-13-8-16-7-19-6-24-3-24-1-21 1-114 2-167-28 5h-10l-63-21-4-2-1-6 1-62 3-9 16-5 46-10 24-4 16-1 1-27v-64l-15-7-19-8-5-5v-19l1-17 38-19 23-11 58-29 19-9z" fill="#D86C76"/>
<path transform="translate(1028,771)" d="m0 0 5 1 21 10 9 4 18 11 19 14 17 14 15 14 17 17 7 8 12 15 12 17 12 21 10 21 9 24 7 25 4 23 2 19 1 29-2 31-3 22-6 29-8 29-7 20-12 25-15 26-14 19-11 13-7 8-13 13-11 9-10 7-25 15-22 12-20 8-28 8-31 6-28 3-15 1h-43l-67-2-31-3-24-4-22-6-19-7-16-8-14-8-14-11-21-21-8-11-9-15-8-19-5-17-4-21-1-9v-33l4-18 6-16 9-15 10-11 11-8 9-4 8-2v2l10-6h24l48 7 19 3 13 4 10 6 10 9 7 8 6 13 5 16 1 8v29l-4 18-10 18-11 13-6 4 2 5 9 8 18 10 15 5 11 1 23-4 23-7 18-8 18-11 11-9 14-14 13-18 9-16 9-19 2-3 1 2v13l-7 15 8-13 6-18h2l2-10 6-27 2-16 2-9 2-37v-15l-3-29-2-11v-5l3 3 4 17 3 16 2 20 2 23v35l2 3v14l4 9 1 9 2 4 1 9-1 8 3 5 1 10-1 7 1 2 1 10 3 6-1 10 4 13 2 7 2 4-3 4 5 2-1 2 4-1 5-3 7-8h2l2-5 9-11 6-8 1-3h2l1-5 5-13 8-15 4-12 2-4h2l2-12 2-6h2l2-9 2-7 1-8h2l1-9 2-14 1-1 3-18 1-19v-62l-3-24-3-15-3-7-4-13-2-9h-2l-7-17v-4h-2l-9-19-6-11v-2h-2l-11-16-5-6v-3l-3-1-8-10-6-7-5-5-15-16-7-7-1-5 3-5 3-1 3 1-10-9-15-10-11-8v-3l11 1z" fill="#74727C"/>
<path transform="translate(708,253)" d="m0 0 10 3 35 17 19 9 3 2 1 3v133l-2 15 8-2 57-10 100-20 77-15 85-17h7l7 2-1 3-5 1v39l-7 11-8 9-24 32-3 7-12 15-12 17-11 14-9 12-10 14-10 13-9 12-14 18-12 17-12 16-14 18-14 19-7 9-5 5-8 10-7 8-2 1h-7l-4-12v-8h-2l-2-15v-18l-1-7-4-4-5-1-9 3-5 4 2-5 39-54 14-19 13-18 6-8 1-2-17 2-45 8-93 17h-4v82l-1 107 4-4 2 1-7 11-2 3-1 20v51l8 2v1h-5l1 16 1 44 5 30 3 10 2 4 6-2 16-10 6-4-2 5-11 9-4 1v2l-3 3-7 3-3 3-10 5-14 4-2-1-1 2h-20l-14-5v-2l-4-2-2-4 3-3h4l-2-6-7-13-6-21-2-13-1-14v-39l1-173 1-129 94-17 28-5 21-4 75-15 11-3 7-1-5-1h-18l-30 3-51 8-40 7-19 2h-14l-10-4-6-3-6-7-1-3h-2v-9h-2l-2-9 3-3-2-6v-5h2l2-6 6-1-1-1-21 4-12 2h-5l-2-3z" fill="#54747E"/>
<path transform="translate(695,1096)" d="m0 0h17l13 5 8 4-1-6 5-1 9 4 4 2 7 8 5 8 1 6h2l4 14 2 13 1 1 1 8v19l-5 21-4 8-12 19-9 8h-2l2 5 6 8 2 5 3 1-1 4-8-4-4 1 5 5 15 8 15 5 19 5 10 1 1 1 21 3h17l22-2 20-5 8 1 2 4-2 4h-2l2 6v21l3 1-3 10h2v6h2v3l3 1v5l-3 5-7 3-5 2-3 4-1 2-12 3-19 1h-24l-31-3-24-4-22-6-19-7-16-8-14-8-14-11-21-21-8-11-9-15-8-19-5-17-4-21-1-9v-33l4-18 6-16 9-15 10-11 9-7v3l-3 2 9-3 11-4z" fill="#D86C76"/>
<path transform="translate(1115,373)" d="m0 0 10 4v39l-2 6-13 19-11 14-6 9h-2l-2 5-5 7h-2l-2 5-13 17-8 11h-2l-2 5-12 16-11 15-16 21-8 11-24 32-14 19-12 16-14 19-11 15-1 2h-2l-2 4-10 14-6 9h-2l-1 4-5 5-2 5 20 7 24 10 18 8 10 4h6v5l-7 4-10-1-26-10-25-8-2 2h-3l-2 6v17l1 16 3 17 4 15 2 16v17h2l5 9 1 8 6 6v2h2v2h2l6 8 8 8 8 7 5 6 8 7 1 3 3 1 6 7v2h2l3 5 9 11 6 10v2l3 1 11 20 9 22 5 22 2 13 2 22v15l-2 37-2 9-3 21-6 25-2 7h-2l-2 10-4 10-9 15-1-3 8-16v-17l5-15 6-25 4-29 1-16v-33l-2-24-4-17-7-19-8-17-10-17-10-15-11-14-11-12-8-8-11-9-15-12-17-11-22-12-17-7-12-3-18-3-40-10-18-4-9-4-1-3v-48l1-20 9-14 2-5 14-18 13-18 13-17 14-19 12-16 11-15 4-2 6-4 6-1 5 2 4 4 1 7v18l1 15h2l2 11 2 9 9-2 9-10 9-12 5-5 27-36 8-10 14-19 10-14 11-14 12-16 14-19 12-16 10-13 13-18 13-17 2-5 24-32 9-11 5-8 1-39 5-2z" fill="#A2727E"/>
<path transform="translate(781,517)" d="m0 0h10l-3 14v14l4 3 7 3-3 2-16 3h-4v82l-1 107 4-4 2 1-7 11-2 3-1 20v51l8 2v1h-5l1 16 1 44 5 30 3 10 2 4 6-2 16-10 6-4-2 5-11 9-4 1v2l-3 3-7 3-3 3-10 5-14 4-2-1-1 2h-20l-14-5v-2l-4-2-2-4 3-3h4l-2-6-7-13-6-21-2-13-1-14v-39l1-173 1-129 50-9z" fill="#4A424C"/>
<path transform="translate(1124,378)" d="m0 0 10 3 28 14 16 9 5 5 2 5 1 21-1 7-1 2 1 7-10 14-11 14-9 12-16 21-14 19-10 13-16 21-15 20-16 21-14 19-16 21-10 13-12 16-10 13-28 38-9 10-1 5 7 4v3l1 3-11-3-16-8-6-2-29-12-12-4v-4l5-7h2l1-4h2l2-5 12-16 4-6h2l2-5 16-21 13-18 45-60 14-19 10-13 11-15 13-18 9-11 13-18 4-6h2l2-5 5-7h2l2-5 14-18 14-20 1-10z" fill="#324352"/>
<path transform="translate(708,253)" d="m0 0 10 3 35 17 19 9 3 2 1 3v133l-2 15 8-2 36-6 2 3 23-2 4 4-2 9h-2l2 10 1 12 1 13v6l4 1 6 2 7 1h11l43-7 1-1 47-7 9-2 5 1-1 5-7 6-11 16-9 11-7 9-7 6-4 3-9 2v2l-47 8-60 11-19 3-10-5-2-4v-12l2-10 1-3-4-2 32-6 12-2 21-4 75-15 11-3 7-1-5-1h-18l-30 3-51 8-40 7-19 2h-14l-10-4-6-3-6-7-1-3h-2v-9h-2l-2-9 3-3-2-6v-5h2l2-6 6-1-1-1-21 4-12 2h-5l-2-3z" fill="#A2717E"/>
<path transform="translate(698,1089)" d="m0 0h24l48 7 19 3 13 4 10 6 10 9 7 8 6 13 5 16 1 8v29l-4 18-10 18-11 13-6 4 2 5 9 8 18 10 15 5 11 1 23-4 23-7 18-8 18-11 11-9 14-14 13-18 9-16 9-19 2-3 1 2v13l-8 16-2 6-8 16-6 11-1 7v7l2 3v6l-2 4 1 1v8l1 5 1 2-2 4h2l1 8 2 2 3 20 2 6 13-5 7-6 6-2 9-7 10-7 6-3 4-4 17-11 5-2 7 1 2 2-8 11-12 14-9 8-7 5-7 3-8 5h-2v2l-16 8-25 12-8 1-5-5-4-1-11 3 4 1 2 1-1 3-8 2-4 2-5-1v-3h3l-1-2-29 8-7 1v4h-2v2l-3 2 3 3-16 4h-32l-9-1v-1l19-1 12-3 2-5 14-6 2-4v-5l-2-1v-3h-2v-6h-2l1-7 1-3-3-3v-19l-1-6 2-2 2-4-3-1-7-1-20 5-22 2h-18l-20-3-5-1-21-5-16-5-17-8-6-5-1-3 5-1 8 4v-3l-4-4-4-6-4-5v-4l10-8 8-13 5-7 4-10 4-18v-19l-1-8-1-1-3-16-2-11h-2l-5-12-3-3v-2l-4-2-1-3-9-3-4-2h-5l2 5-1 2-10-5-11-4h-17l-15 4-12 5-3-1 5-5 10-5 8-2v2z" fill="#94727C"/>
<path transform="translate(1028,771)" d="m0 0 5 1 21 10 9 4 18 11 19 14 17 14 15 14 17 17 7 8 12 15 12 17 12 21 10 21 9 24 7 25 4 23 2 19 1 29-2 31-3 22-6 29-6 23-2 1-2-4-15-3-22-2-9-3-8-4v-9l5-21 5-28 3-32v-46h-2l-2-15-1-9-2-7-2-13-4-15-6-20-8-19-8-17-9-15-1-4-4-4-5-9-2-1-4-7-5-6-5-5-9-11-7-6-3-3v-2l-3-1-5-5-5-6-11-9-11-10-15-10-11-8v-3l11 1z" fill="#334553"/>
<path transform="translate(708,253)" d="m0 0 10 3 35 17 19 9 3 2 1 3v133l-2 15 8-2h8l-3 3h-3v2l-16 1-2-1 2 3 4-1 2 2-3 1-2-1-1 2-15 2-25 5-8 1-10 1-2-3z" fill="#515263"/>
<path transform="translate(698,1089)" d="m0 0h24l48 7 19 3 13 4 10 6 10 9 7 8 6 13 5 16 1 8v29l-4 18-10 18-11 13-6 4h-2l-1 6-1 7 4 8-1 4h-12l-14-4v-2l-7-1-7-5-10-4-7-7-11-6v-4l10-8 8-13 5-7 4-10 4-18v-19l-1-8-1-1-3-16-2-11h-2l-5-12-3-3v-2l-4-2-1-3-9-3-4-2h-5l2 5-1 2-10-5-11-4h-17l-15 4-12 5-3-1 5-5 10-5 8-2v2z" fill="#4A414C"/>
<path transform="translate(1124,1207)" d="m0 0 29 3 16 3 14 1 1 2-2 7-12 20-13 17-9 11-9 10-12 12-11 9-10 7-25 15-22 12-20 8-28 8-31 6-28 3-15 1h-43l-2-2 8-2 7-2-5-1 4-3h2v-2h2v-4l25-7 13-3-1 3h-3v3h7l4-3 6-1 1-2h-6l-2-2 13-4 4 1 2 4 8 1 16-7 17-8 9-5h2v-2l12-7 8-4 10-8 12-13 11-15 5-3 13-17 7-10 8-11 4-8 5-9z" fill="#3A404F"/>
<path transform="translate(1124,378)" d="m0 0 10 3 28 14 16 9 5 5 2 5 1 21-1 7-1 2 1 7-10 14-11 14-9 12-16 21-10 14-2-1-6 3-6 5-5 1-2-1h-11l-6-3-5 1-9-5-2 5-3 4-2 4 4 2-3 3v3l-7 3v6l-1 2-7 3-5 3-9 3-3-1 8-9 5-4 3-7 10-7 2-4v-2l-9 2-7 5-7 1v-4h-2l-1-2-2 1 2-5 8-10 7-10 9-11 13-18 4-6h2l2-5 5-7h2l2-5 14-18 14-20 1-10z" fill="#684654"/>
<path transform="translate(1045,801)" d="m0 0 9 4 11 10 9 9v2l3 1 5 6 5 4 7 9 5 5 8 10v3l3 1 1 4 2 1 3 5v2l3 1 3 7 11 20 9 20 8 24 4 15 2 12 2 10 2 8 1 18h2l1 14v32l-3 32-6 33-4 16v9l7 3 9 3 22 2 15 3 3 5-3 11-8 21-11 22-2 1v-4l-14-1-24-4-21-2-3 1v-2l-5-2-1-1v-13l9-28 3-12h2l2-9 2-7 1-8h2l1-9 2-14 1-1 3-18 1-19v-62l-3-24-3-15-3-7-4-13-2-9h-2l-7-17v-4h-2l-9-19-6-11v-2h-2l-11-16-5-6v-3l-3-1-8-10-6-7-5-5-15-16-7-7-1-5 3-5z" fill="#D66C76"/>
<path transform="translate(911,739)" d="m0 0 20 6 22 8 10 4 10 1 5-3h2v-5l-5-1-2-3 4-1 33 13 27 13 21 12-3 1-16-8-9-4-7 2-10-1 4 4 10 7 14 10 5 4v2l4 2 1 2-6-2h-2l-2 5 1 5 16 16h-3l-30-30-11-8-23-13-9-6-8-3-6 1v2l2 1v18l2 7h-2v6l-2 7 1 7 2 4v15l3 1 3 7v7l4 14 2 6 1 2 1 9 1 1v15l1 10-1 4 2 11 4 11 6 11 1 5-4-5-7-11-8-9v-3h-2l-3-4v-2l-3-1-7-8-3-2v-2l-3-1v-2l-3-1-7-8-8-7-8-9v-2h-2v-2h-2l-7-8-1-8-4-7v-2h-2l-1-4v-13l-2-17-5-17-2-16-1-14v-17l3-6 3-1z" fill="#89767E"/>
<path transform="translate(828,690)" d="m0 0 8 1 6 3 1 2 1 23 3 35 1 2v17l4 4v9l2 10v4h2l2 5v9l1 9v10l-1 5-7-1-6 1-1 2-4-2-9-1-5-2-12-2h-24l-10-2-9-4-1-3v-48l1-20 9-14 2-5 14-18 10-14 6-2v-2l5-3z" fill="#B5707B"/>
<path transform="translate(825,908)" d="m0 0 12 1 46 11 9 4v60l-3 10-9 12-5 6-26 17-10 5-15 5-17 3h-17l-9-3-11-1-12-2-4-1-9-2-2-2 3-3 22-6 16-8 16-10 3-4 5-3 10-13 5-15 1-1 1-10z" fill="#49414B"/>
<path transform="translate(777,551)" d="m0 0h1v5h-2v82l-1 107 4-4 2 1-7 11-2 3-1 20v51l8 2v1h-5l1 16 1 44 2 14v10l-6 1-5-3-3-3 3-3 6-4v-2l-3-2v-2l-9-1-10-4-6-3-5-10-3-9-1-6 5-3 1-7v-8l2-10 3-5 1-3 4-4 1-2-2-1 2-4 3-5v-5l-3-1 1-11 5-1 2 2 1 5v-7h2v-11l-1-6 1-6-2-8v-3l-2 1v-6l1-1-3-1v4h-2l-1 3-1-3v-6l-3-1 1-4 2 1-2-10 2-2 1-17 2-9 1-9 2-6-4 2v-6l2-3v-8l1-6 1-5v-11l-5-1-1 2-2-3 1-5h3l1-3h2v-5l-6 5-2-4v-7h3l-2-6 1-4 1 5h2l-3-6-2-2h-3l-1-9h1v-5l-2 2-1-9v-17l-1-5v-8l1-1-1-6 5-2 1-2h4l1-3 8-3 14-1z" fill="#463744"/>
<path transform="translate(1033,543)" d="m0 0v3l-9 13-6 10-4 4-4 7-10 15-3 1-2 5-8 11-1 4h2l-2 5-5 2-1 2 6-2 14-11v3l-9 10-6 9-5 5-7 8-3 7-2 8v6l2-1 2-4 3-4 1 3 3-7 9-8 17-10 5-3 4-3h2v2l6-3h3v2l8-6 6-2 1 4-6 8-4 8-6 8-7 8-6 9-5 9h-2l-1 4-18 27-6 10-8 12-3 7v3l7 4v3l1 3-11-3-16-8-6-2-29-12-12-4v-4l5-7h2l1-4h2l2-5 12-16 4-6h2l2-5 16-21 13-18 45-60 14-19 10-13z" fill="#3A404F"/>
<path transform="translate(1161,1006)" d="m0 0 4 2v15l1 19 24 6 14 3 15 3 2 3v10l-2 6h-2l-1 4 3 6 1 14h1v9l-7 34-6 23-2 1-2-4-15-3-22-2-9-3-8-4v-9l5-21 5-28 3-32v-46h-2z" fill="#4A414C"/>
<path transform="translate(970,479)" d="m0 0h2l-2 5-12 17-6 7-7 9-7 6-4 3-9 2v2l-47 8-60 11-19 3-10-5-2-4v-12l2-10 1-3-4-2 32-6 12-2 21-4 75-15 11-3 17-3 11-2z" fill="#944564"/>
<path transform="translate(1e3 1165)" d="m0 0 2 2v13l-8 16-2 6-3 5h-2l-2 6-10 14-7 9-4 4h-2l-1 4-1 3v22h-2l1 7v14l-1 6h-2l-1 11h-2l-1 12v6 3l-4 4-12 5-29 8h-7l3-2 9-2 5-4 1-2 4-30 1-4 2-29v-3h-9l-7 2-16 5-6 1-5 2-20 5-22 2h-18l-20-3-5-1-21-5-16-5-17-8-6-5-1-3 5-1 8 4v-3l-4-4-4-6-2-4 5 2 6 3 3 5 9 4 9 5 3 2 5 1v2l7 1 7 2h12l-1-4-3-7 1-7 2-6 4 5 9 8 18 10 15 5 11 1 23-4 23-7 18-8 18-11 11-9 14-14 13-18 9-16 9-19z" fill="#A3727E"/>
<path transform="translate(1115,373)" d="m0 0 10 4v39l-2 6-13 19-11 14-6 9h-2l-2 5-5 7h-2l-2 5-13 17-8 11h-2l-2 5-12 16-11 15-16 21-8 11-24 32-14 19-12 16-14 19-11 15-1 2h-2l-2 4-10 14-6 9h-2l-1 4-5 5-4 6-9 3h-7l-1-5 6-8 10-14 6-8 28-38 12-16 10-13 13-17 12-17 14-18 12-16 14-19 12-16 10-13 13-18 13-17 2-5 24-32 9-11 5-8 1-39 5-2z" fill="#BF7D91"/>
<path transform="translate(933,540)" d="m0 0h5l-1 6-6 9-5 9-1 5 3 15 4 25 3 7 4 3 3 5 1 1 2-3h2l2-5 3-5 4-3h3l10-9h2l2-4 5-6v3l-10 14-12 16-14 18-14 19-7 9-5 5-8 10-7 8-2 1h-7l-4-12v-8h-2l-2-15v-18l-1-7-4-4-5-1-9 3-5 4 2-5 39-54 11-15 5-1 2-5 7-8 3-5z" fill="#8A767F"/>
<path transform="translate(1124,1207)" d="m0 0 29 3 16 3 14 1 1 2-2 7-12 20-13 17-9 11-9 10-12 12-4 3-4 1-4 4-2-1v-3l-3-1-18-2-17-3-11-1v-3l14-15 5-5 4-6 4-4 6-7 4-7 7-9 8-13 2-9 2-3z" fill="#324352"/>
<path transform="translate(694,523)" d="m0 0 4 2 7 4 3 1v129l-1 173v39l2 21 4 17 3 10 7 13 1 1v5h-6l2-8-7-2-3-1-3 2-3-5-5-13-3-13-3-25v-172z" fill="#EC8EB0"/>
<path transform="translate(1116,438)" d="m0 0 5 1-2 5v9h5v2h-2l-1 3-6 4-1 2h-6l-4 3-4 1 1 3 4 1v2l9 2 7 5-2 1 3 3 7 2 8 1 1 1h4l2 3 5-2 5-4 6-7h2l-1 4-12 16-16 21-4 6-2-1-6 3-6 5-5 1-2-1h-11l-6-3-5 1-9-5-2 5-3 4-2 4 4 2-3 3v3l-7 3v6l-1 2-7 3-5 3-9 3-3-1 8-9 5-4 3-7 10-7 2-4v-2l-9 2-7 5-7 1v-4h-2l-1-2-2 1 2-5 8-10 7-10 9-11 13-18 4-6 5-3 5-5h3v-2h3v-5l3-6 3-3h2l2-5 6-8z" fill="#4A424C"/>
<path transform="translate(796,725)" d="m0 0 4 1 2 4v7h2l1 2 4 1 1 11 2 4-1 13-1 22h2v6l2-1 2 10 2 7 3 1 7 11v2l3 1v2l8 2 10 4 1 2-5 1-1 2-4-2-9-1-5-2-12-2h-24l-10-2-9-4-1-3v-48l1-20 6-10 5-3 7-7 1-3 4-2z" fill="#D86B76"/>
<path transform="translate(1024 1e3)" d="m0 0 3 3 4 17 3 16 2 20 2 23v35l2 3v14l4 9 1 9 2 4 1 9-1 8 3 5 1 10-1 7 1 2 1 10 3 6-1 10 4 13 2 7 2 4-3 4 5 2-1 2 4-1 5-3 7-8h2l2-5 9-11 6-8 1-3h2l1-5 5-13 8-15 4-12 3-4-2 9-4 13v13l5 3-2 5-4 8-5 9-10 13-9 13-9 11-4 1-1-3-4-1v-2h-14l-8 1h-3l-2-2-2 1-2-3-4-19 1-7-2-1-2-4v-11l-3-12-1-9-3-9v-10l-1-2-1-12v-9l-1-8 1-11 2-13 2-21 1-5 1-36-3-30-3-15v-4h-2z" fill="#6C717C"/>
<path transform="translate(1028,771)" d="m0 0 5 1 12 6 4 4 11 6 9 5 9 9v2l4 2 4 4 5 3 4 3 7 3 9 9v2l4 2 9 6v2l4 2 4 5 2 1 1 6h-7l-3-1-2 1-11-3h-3-2l2 5 5 5 15 4 19 2 10 5 1 3 4 2 9 12 15 25v2l-6 1-11-1-6-1-9-1h-9l-6-2-2-6-2-3 9-3h2l1-8 10-2 7 4 5 1-3-6-3-3h-6v1l-5 1h-10l-14-5v-2l-5-2-2-4h-3l-1-4-4-2h-3l-2-4-2-1-4-7-5-6-5-5-9-11-7-6-3-3v-2l-3-1-5-5-5-6-11-9-11-10-15-10-11-8v-3l11 1z" fill="#474F64"/>
<path transform="translate(1112,867)" d="m0 0 6 4 1 4h3l5 5 2 1v2l5 1 9 3h10l4-2h7l1 3 4 2 1 5h-5l-7-4-10 1v8l-6 2-5 1 5 9v6l4 2 1 4 5 6h3l3 6v2h2v-4h2v-2h7l1-1h7v-2l10-1 5 4 2 8 4 10 2 1 5 10 7 18 3 10-1 10-4 1h-10l-34-5-5-2v13h-1l-1-13-2-7-3-18-4-15-6-20-8-19-8-17-9-15-1-4-4-4-2-5z" fill="#414959"/>
<path transform="translate(945,754)" d="m0 0 8 1 27 11 12 5 16 8 11 10 5 5 2 4-7-4-5-4-23-13-9-6-8-3-6 1v2l2 1v18l2 7h-2v6l-2 7 1 7 2 4v15l3 1 3 7v7l4 14 2 6 1 2 1 9 1 1v15l1 10-1 4 2 11 4 11 6 11 1 5-4-5-7-11-8-9v-3h-2l-3-4v-2l-3-1-3-6-5-6-4-12v-19l-4-18-2-6v-10l-5-6v-10l1-5-4-5-1-7-1-12-1-2-3-22v-5l3-4 1-5z" fill="#74727C"/>
<path transform="translate(908,415)" d="m0 0 5 1-1 3-3-1-7 2h-3v2l2 1-3 7 1 9h2v8h-2l2 10 1 4v5l4 4h8l2-1h6l10 4h15v2l-28 4-6 2-40 6h-14l-4-2-4-1-4-2-1-6v-6l-1-7v-6l-1-6-1-10h2l1-11-5-1-21 2-3-2 1-2 36-7 3 1-4 2h10l39-7z" fill="#8A777F"/>
<path transform="translate(1162,1012)" d="m0 0h1l1 14v32l-3 32-6 33-4 16v9l7 3 9 3 22 2 15 3 3 5-3 11-8 21-11 22-2 1v-4l-14-1-24-4-21-2-3 1v-2l-5-2-1-4h3l2 3 4-1 1-4 7-11 3-5 11-35 8-32 6-36 2-29z" fill="#B2465F"/>
<path transform="translate(762,355)" d="m0 0 8 2v3l5-3v70l-2 9-54 11h-10v-4h9l-1-3v-3l2-11 6-23 5-12 1-10 5-2 4-12 6-3h9l5-6z" fill="#424959"/>
<path transform="translate(1e3 673)" d="m0 0h2v4l2 1-3 5-9 14-10 15-4 7-8 12-3 7v3l7 4v3l1 3-11-3-16-8-6-2-29-12-12-4v-4l5-7h2l1-4h2l2-5 12-16 4-6h2l2-5 2-1 2 4v3l7-1 4 1h3l4 5 3 13v5l5-1 6-7 7-4 1-2h2v-2l8-6 2-4h2v-2h2l1-2h4z" fill="#4A424C"/>
<path transform="translate(710,294)" d="m0 0 2 4 2 12 2 23 2 2 5-12-1-3 9-1 5-2 5 4 3 1 1 3h2v-3l2 1-2 8 1 2-2 4 3 3v2l-2 1v8h-2l-2 11-6 17-5 2-2 13-5 13-7 27 1 6-1 3h-9v4l15-2 30-6 14-3h5v-6h1v5l8-2h8l-3 3h-3v2l-16 1-2-1 2 3 4-1 2 2-3 1-2-1-1 2-15 2-25 5-8 1-10 1-2-3v-113z" fill="#485064"/>
<path transform="translate(1151,994)" d="m0 0 6 1v2h3l2 15 1 15v24l-2 29-4 25-6 28-7 25-8 25-12 20-5 2-4-4v-10l9-28 3-12h2l2-9 2-7 1-8h2l1-9 2-14 1-1 3-18 1-19h2v-69z" fill="#D86C76"/>
<path transform="translate(765,1210)" d="m0 0h7l2 4-1 4 7-2 5-2 1-2h11l15 1h19 3l-2 3-3 9-11 14-6 5-4 1-1 6-1 7 4 8-1 4h-12l-14-4v-2l-7-1-7-5-10-4-7-7-11-6v-4l10-8 8-13 3-5z" fill="#453643"/>
<path transform="translate(1013,1164)" d="m0 0h1v6l-5 16v26l1 2v15l2 6-1 8 1 16v7l5 18 4 2 3-1 3 2 8-3 9-3-3 3-10 6-10 8-4 3-7 2-7 6-11 4-3-7-3-20-2-2v-8h-2l1-5-1-3-1-6v-5-4l1-1v-6l-2-3v-10l3-8 8-15 6-11 11-19z" fill="#89767E"/>
<path transform="translate(836,910)" d="m0 0 10 1 40 10 6 3v60l-2 6h-1l-1-7-5-2-18-2-11-2v-3l3-1-12-6-7-6v-7l6-18 1-12 3-3 1-5-9-4z" fill="#453744"/>
<path transform="translate(935,489)" d="m0 0 2 1-3 1-2 5-4 6-16 13-9 3-7 2-11 1-13 4-5 1h-7v2l-12 3-6 2-7 1h-23l-7-3-6-5-1-10 4-3 28-5 21-4 25-5h7l30-6z" fill="#B2455F"/>
<path transform="translate(1009,1323)" d="m0 0 1 2h-2l3 3 25 5 9 4v3l2 1-21 7-24 6-29 5-36 3h-43l-2-2 8-2 7-2-5-1 4-3h2v-2h2v-4l25-7 13-3-1 3h-3v3h7l4-3 6-1 1-2h-6l-2-2 13-4 4 1 2 4 8 1 16-7z" fill="#684754"/>
<path transform="translate(782,441)" d="m0 0 7 1-1 11v27l4 11 7 5 3 1h15l5-1h8v1l-30 5-19 2h-14l-10-4-6-3-6-7-1-3h-2v-9h-2l-2-9 3-3-2-6v-5h2l2-6 7-2 3-2 10-1 9-2z" fill="#B66F7A"/>
<path transform="translate(1124,378)" d="m0 0 10 3 28 14 16 9 5 5 2 5 1 21-1 7-1 2 1 7-5-2-10-6-7-3v-2l-4-1-13-5-17-3-4-2v-45z" fill="#334453"/>
<path transform="translate(698,1089)" d="m0 0h24l48 7 19 3 13 4 10 6 10 9 7 8 4 8v2l-8-1-21-2-26-4-13-4-2 1-5-12-3-3v-2l-4-2-1-3-9-3-4-2h-5l2 5-1 2-10-5-11-4h-17l-15 4-12 5-3-1 5-5 10-5 8-2v2z" fill="#4B424D"/>
<path transform="translate(933,540)" d="m0 0h5l-1 6-6 9-5 9-1 5 3 15 4 25 3 7 4 3 3 5 1 1 2-3h2l2-5 3-5 4-3h3l10-9h2l2-4 5-6v3l-10 14-12 16-14 18-5 7-10 5-5 3-2-3-4-16-3-27-3-12-3-3-3-6-5 2-8 4-3-1 13-18 11-15 5-1 2-5 7-8 3-5z" fill="#75737D"/>
<path transform="translate(891,733)" d="m0 0 9 1 22 7-4 1-6-2-2 2h-3l-2 6v17l1 16 3 17 4 15 2 16v17h2l5 9 1 8 6 6v2h2v2h2l6 8 7 7h-3l-7-6-5-5-10-8-4-4-16-14-5-18-1-4-1-13-4-9v-2h2l-3-10-2-21-3-11-1-8v-11l4-8z" fill="#94727C"/>
<path transform="translate(920,1268)" d="m0 0h7l2 1 1 8-2 24-2 10-3 24-4 5-5 2-15 4-3-1 2-1 2-4v-5l-2-1v-3h-2v-6h-2l1-7 1-3-3-3v-19l-1-6 2-2 2-4-3-1-3-3 5-2 12-3 11-3z" fill="#B66F7A"/>
<path transform="translate(930,748)" d="m0 0 14 3 4 3-4 2-1 6-2 2 1 12 2 15 1 2 1 16 5 10-1 3v10l5 6v10l4 13 2 11v19l4 12 6 7v2h-2l-4-5-3-2v-2l-3-1-3-6-4-4-5-13-3-4-4-17-1-7-1-4-1-14-3-5v-16l-3-7-4-20v-10l-2-6v-14l1-2h2l1-4z" fill="#81777F"/>
<path transform="translate(825,908)" d="m0 0 12 1 3 2 9 4 1 3-3 5-1 5-2 11-5 15-1 7 3 1 4 4 13 7-1 3v-2l-2 2 16 3 12 1 6 3 1 9-4 6-1-3-11-1-33-7-15-3-7-1 3-11 2-4 1-10z" fill="#5B4652"/>
<path transform="translate(816,427)" d="m0 0 3 1 1 2 23-2 4 4-2 9h-2l2 10 1 12 1 13v6l4 1 6 2 7 1h11l43-7 1-1 47-7 9-2 5 1-1 5-6 5-5 1-12 3-11 1-7-1h-17l-30 3-20 3-17 1-7 1h-10l-8-8-2-14 1-29 1-7h-23l-5 1h-3l1-3 9-2 2-2z" fill="#94727C"/>
<path transform="translate(908,415)" d="m0 0 5 1-1 3-3-1-7 2h-3v2l2 1-3 7 1 9h2v8h-2l2 10 1 4v5l4 4h8l2-1h6l10 4h15v2l-36 5-11 1h-10l-5-2-6-7-1-4-1-24-2-9v-7l-1-3h-10l-29 5-15 1-3-2 1-2 36-7 3 1-4 2h10l39-7z" fill="#74727C"/>
<path transform="translate(1127,524)" d="m0 0 1 3-13 17-5 3-9 9-1 2h-2l-1 3h-2l-2 4-9 10-2 3h-2l-1 3-6 3-4-1 2-3-6 2-4 1 2-3 3-2-6 1-2-4 5-2 1-2-5-2v-4l1-3-2-1 1-3h4v-8l8-4-2-3 4-2-3-2 2-6 5-7 4 1 5 3 5-1 6 3h11l5 1 6-4 4-3z" fill="#39404F"/>
<path transform="translate(1115,373)" d="m0 0 10 4v39l-2 6-13 19-11 14-6 9h-2l-2 5-5 7h-2l-2 5-13 17-5 7-1-2 9-13 3-6h-2l-2 3 1 2h-4v2h-2l1-5 2-1 2-7 2-3h3l1-3h1l2-9 1-2-5 5-5 4 2-4 13-18 11-14 8-10 5-8 1-39 5-2z" fill="#B4707B"/>
<path transform="translate(743,1242)" d="m0 0 5 2 6 3 3 5 9 4 9 5 3 2 5 1v2l7 1 7 2h12l-1-4-3-7 1-7 2-6 4 5 9 8 18 10 15 5 5 2-2 2h-18l1 3 2 2-5 1-10 1h-14l-7-1-5-1-21-5-16-5-17-8-6-5-1-3 5-1 8 4v-3l-4-4-4-6z" fill="#495064"/>
<path transform="translate(813,918)" d="m0 0 1 2-5 6-10 7h-2v2l-3 3-7 3-3 3-10 5-14 4-2-1-1 2h-20l-14-5v-2l-4-2-2-4 3-3h4l-2-6-5-10 1-2 2 1 4-1 17 3 20 4 16 3 6 2 1-2 2 4 6-2 16-10z" fill="#55747E"/>
<path transform="translate(792,1009)" d="m0 0 2 1v4l17 4 15 4 21 7-3 3-17 6-20 4h-17l-9-3-11-1-12-2-4-1-9-2-2-2 3-3 22-6 16-8z" fill="#674653"/>
<path transform="translate(1195,960)" d="m0 0 5 1 11 20 3 9v9l-4 1h-10l-34-5-5-2v13h-1l-1-13-2-7-2-13v-5l9 2 1-2 2 2 2-4 5-1 2-2 9 3 1-4h4z" fill="#4B424C"/>
<path transform="translate(874,627)" d="m0 0 6 2 4 4 1 7v18l1 15h2l2 11 2 9 9-2 9-10 9-12v3l-13 18-7 9-5 5-5 7-4 3h-6l-2-3-1-9-3-8-2-28-2-9-3-6-2-3-6-1-4 3-5 2h-3l10-14 4-4 9-6z" fill="#94727C"/>
<path transform="translate(1033,543)" d="m0 0v3l-9 13-6 10-4 4-4 7-10 15-3 1-2 5-8 11-1 4h2l-2 5-5 2-1 2 6-2 14-11v3l-9 10-6 9-5 5-7 8-3 7-2 8-2 10-3 5-2 4-5 4-5-4-5 1-6-1h-2l-2-5 1-5 16-21 10-14 45-60 14-19 10-13z" fill="#424959"/>
<path transform="translate(984,934)" d="m0 0 5 3 9 15 5 9-4-9 1-2 6 10 8 16 7 17 5 22 2 13 2 22v15l-2 37-2 9-3 21-6 25-2 7h-2l-2 10-4 10-9 15-1-3 8-16v-17l5-15 6-25 4-29 1-16v-33l-2-24-1-10h1v-10l-9-27-2 3-3-6-3-2-5-12-4-4-6-11-3-3-1-4z" fill="#94717C"/>
<path transform="translate(1082,487)" d="m0 0h2v3l7 2-2 1-1 4-1 1 6 1-1 2h-2l-2 5-3 1-3 5 2 2-3 1-1 5 2 1-1 4-4 1-2 5-3 4-2 4 4 2-3 3v3l-7 3v6l-1 2-7 3-5 3-9 3-3-1 8-9 5-4 3-7 10-7 2-4v-2l-9 2-7 5-7 1v-4h-2l-1-2-2 1 2-5 8-10 7-10 9-11 6-8 3-1 1-2z" fill="#424959"/>
<path transform="translate(950,688)" d="m0 0 4 4 3 6-1 9-1 4 1 2h2l1-3 2 3 1 7 2 1 4 5 1 4-1 4v7l7 4v1l-11-1-15-7-21-8-20-8-3-2v-2l13-2 6-3 7-6 6-3 7-8z" fill="#443643"/>
<path transform="translate(1180,449)" d="m0 0 4 2-2 4-8 11-10 13-5 2-8 9-5 3h-4v-4l-6 1v-1l-14-3-3-2-1-4-6-4-7-2v-2l-5-1v-4l10-4 4 1 2-4 5-3 2-2 6 4 5 2 6 4 10 1 6-2 1-3h6l1 2 7-1 6-9z" fill="#5B4652"/>
<path transform="translate(836,910)" d="m0 0 10 1 25 6-3 2-1 4-1 2h-2l-1 9v11l-2 7-2 3 2 7 2 4 15 6 6 3v2l5 2-1 4-5-2-18-2-11-2v-3l3-1-12-6-7-6v-7l6-18 1-12 3-3 1-5-9-4z" fill="#49424C"/>
<path transform="translate(771,1185)" d="m0 0h2l1 2 13 4 15 1 5 2 15 3h9l5 4-2 9-3 4h-19l-26-2-1 3-7 3h-5l-1-7h-9l5-12z" fill="#673B52"/>
<path transform="translate(1101,371)" d="m0 0h7l7 2-1 2h-8l-9 4-23 5-25 5-28 6-16 3-14 2-22 5-17 3-19 4-15 3h-7l4-2 7-3h3v-2h7v-2l-3-1 162-32z" fill="#6E717C"/>
<path transform="translate(755,1114)" d="m0 0 4 2 3 4 1 6h2l4 14 2 13 1 1v26l-5 20-2 3-5-1-4-4 2-21v-14l-2-16-7-20-2-4 1-4 5-4z" fill="#F08FB3"/>
<path transform="translate(1116,1217)" d="m0 0 1 4-8 13-10 13-4 7-3 1-2 5-3 1-2 5-4 2-2 4-9 9-6 8 16 2 18 3 12 1 4 2 1 3 3-1 1-3 3 1-11 9-11 6-3-2-29-3-13-1-9-1-4 1 5-5 8-6 12-13 11-15 5-3 13-17 7-10 8-11 4-8z" fill="#674653"/>
<path transform="translate(902,588)" d="m0 0 4 2 3 6 3 5 2 9 3 27 5 18v3l-4 7-6 4-1-1-2 2-3-10 1-11h-2l-2-3v-27l-4-12-3-5-7 1-4 1v2l-5 1-1 2 1-4 7-10 7-3z" fill="#81777F"/>
<path transform="translate(1155,1118)" d="m0 0h1v8l2-1 1-3 4 1 5 10v3l5 2 3 2 10 1 10 3 8 1 4-2 2 1v2h2l-4 17-2 1-2-4-15-3-22-2-9-3-8-4v-9z" fill="#673B52"/>
<path transform="translate(792,991)" d="m0 0v3l-2 4v5l1 4 7-2-4 4-15 9-14 6-19 5-2 2 4 2 7 2h3l12 2 15 2 9 3v1h-12l-24-3-39-7-3-2 12-2 8-2 5-3 2-6 2-2 17-6 9-4 6-4 5-4z" fill="#A3707D"/>
<path transform="translate(1e3 673)" d="m0 0h2v4l2 1-3 5-9 14-10 15-4 7-8 12-3 7-1-4 1-5-2-4-4-5-3-9-1 2-4-1 2-11 1-2h2v5l5-1 6-7 7-4 1-2h2v-2l8-6 2-4h2v-2h2l1-2h4z" fill="#49424C"/>
<path transform="translate(772,1112)" d="m0 0 14 1 23 3 5 2 9 1 7 9 3 6v2l-8-1-21-2-26-4-13-4-2 1-4-10 5-1z" fill="#54747E"/>
<path transform="translate(1028,771)" d="m0 0 5 1 12 6 4 4 11 6 9 5 9 9 1 4h-5l-9-3-9-2v3l5 1 5 5 9 6 2 4 2 7-5-1v-2l-3-1-5-5-5-6-11-9-11-10-15-10-11-8v-3l11 1z" fill="#515061"/>
<path transform="translate(781,517)" d="m0 0h10l-3 14v14l4 3 7 3-3 2-18 3v-13l-2-4-10-2-5-2h-9l-5-2h-5v-3-3l-15 2h-8v-1z" fill="#624553"/>
<path transform="translate(823,907)" d="m0 0 3 1v50l-1 10-6 16-5-1-6-3 2-13 1-44 5-8z" fill="#EE8EB2"/>
<path transform="translate(1124,1207)" d="m0 0 29 3 16 3 14 1 1 2-2 7-4 6-1-2-8 1-15-1-17-2-1-1-14-1-7 1 3-12 2-3z" fill="#3A404F"/>
<path transform="translate(819,983)" d="m0 0 14 1 36 8 16 3-1 5-5 8-6-1-20-4-26-5-15-3 3-7z" fill="#473744"/>
<path transform="translate(1162,1012)" d="m0 0h1l1 14v32l-3 32-6 33-4 16v9l7 3 9 3 22 2 15 3 3 5-3 11-3-3-16-4-25-4-12-4-2-2v-10l8-32 6-36 2-29z" fill="#964462"/>
<path transform="translate(1112,867)" d="m0 0 6 4 1 4h3l5 5 2 1v2l5 1 9 3h10l4-2h7l1 3 4 2 1 5h-5l-7-4-10 1v8l-6 2-5 1 5 9v6l4 2v5l7 12v11l3 7 1 4-1 4-1 3-3-5-6-22-8-21-10-21-9-15-1-4-4-4-2-5z" fill="#4B424C"/>
<path transform="translate(1168,889)" d="m0 0 5 2 8 13 6 10v2l-6 1-11-1-6-1-9-1h-9l-6-2-2-6-2-3 9-3h2l1-8 10-2 7 4 5 1z" fill="#505063"/>
<path transform="translate(767,400)" d="m0 0h2l4 7 2 1v19l-2 9-54 11h-10v-4l14-2 7-3 7-1 10-6 5-2 3-1v-2l2-2-2-3 1-4 2-2 2-4 1 2 3-5v-4z" fill="#3B404F"/>
<path transform="translate(1115,862)" d="m0 0 21 4 12 1 10 5 1 3 4 2 9 12-2 1-5-2-1-2h-6v1l-5 1h-10l-14-5v-2l-5-2-2-4h-3l-4-8-1-4z" fill="#485064"/>
<path transform="translate(813,918)" d="m0 0 1 2-5 6-10 7h-2v2l-3 3-7 3-3 3-10 5-14 4-2-1-1 2h-20l-14-5v-2l-4-2-2-4 3 1v-2h6v2l4-1-3-2-2-7 9 1 15 3 6 2 18 3v2l-14 4-8 1-13-1-1 2 6 2 1 1 13-1 14-5 13-7 6-3 4-5 14-9z" fill="#4B4E62"/>
<path transform="translate(749,1250)" d="m0 0 15 10 14 6 13 4 28 5 3 1v7l-9 1-7-1-5-1-21-5-16-5-17-8-6-5-1-3 5-1 8 4v-3l-4-4z" fill="#944664"/>
<path transform="translate(738,1092)" d="m0 0 18 2 33 5 13 4 10 6 10 9-1 2-8-1-4-2-37-5 4-1-1-6-4-1-9-3-14-4-13-2 3-1z" fill="#474F64"/>
<path transform="translate(975,745)" d="m0 0 10 3 27 11 25 12 21 12-3 1-16-8-9-4-7 2-10-1 4 4 7 5-2 1-15-8-2-1-7-1 2-2-10-9-4-5v-3h-3l-3-3-5-2-2-3z" fill="#74727C"/>
<path transform="translate(791,1020)" d="m0 0h2l2 4-2 9 4 2h3v2l8 2-1 3h-17l-9-3-11-1-12-2-4-1-9-2-2-2 3-3 12-3h9l6 1 1-2 7-2z" fill="#673B52"/>
<path transform="translate(1124,378)" d="m0 0 10 3 16 8-1 4-3-1-6 2h-6l-5-5v-2h-2l1 4 1 10v10l1-9h3l2 2v3h2l2 5-1 5v4l4 5 11 6 7 2 8-3-1-9 3 3 2 8v3h-2l3 6 3 3-6-2-7-3v-2l-4-1-13-5-17-3-4-2v-45z" fill="#434A5A"/>
<path transform="translate(712,529)" d="m0 0h7l1 2 3 1v2l2 1 3 9 2 7-1 6-4 5-7 4h-4l-3 1-2 10h-1v-47z" fill="#5B4551"/>
<path transform="translate(975,469)" d="m0 0 5 1-1 5-6 5-5 1-12 3-11 1-7-1h-17l-30 3-11 2h-7l2-3 43-7 1-1 47-7z" fill="#98737D"/>
<path transform="translate(770,1190)" d="m0 0h1v5l9 1 25 5 27 4 1 4-3 2h-20l-37-2-8-1 3-9z" fill="#944463"/>
<path transform="translate(812,992)" d="m0 0 1 2 33 7 22 4 10 3-5 5-10 7-3 1 1-5 1-2-27-6-19-4-7-2h-5-3l8-6z" fill="#684654"/>
<path transform="translate(1045,1284)" d="m0 0 5 1v2l6 1-1 5h-2l-2 4-14 11-12 7h-6l-4-5 1-5 11-10 15-10z" fill="#D96C76"/>
<path transform="translate(870,424)" d="m0 0 4 1 2 3v9l2 7 1 24 3 7 2 3-13 1-1-4h-2l-1-16-2-14v-19z" fill="#81777F"/>
<path transform="translate(1045,801)" d="m0 0 9 4 11 10 9 9v2l3 1 5 6 5 4v2l-4-2-4-3v-2l-6-2-6-1 1 8 2 1v2h2l4 5 8 11-1 2-9-11-6-7-5-5-15-16-7-7-1-5 3-5z" fill="#B3707B"/>
<path transform="translate(1135,955)" d="m0 0 2 2 3 6h10l3-2 3 12 1 9 3 12-1 3h-2v-2l-9 1-1 1-1 69h-1l-1-62-3-24-3-15-3-7z" fill="#9D727D"/>
<path transform="translate(823,969)" d="m0 0h1v6l10 1 36 8 12 2 7 3 1 3-4 6-1-3-11-1-33-7-15-3-7-1 3-11z" fill="#934463"/>
<path transform="translate(895,1268)" d="m0 0h4l1 2 8-1 3 2-10 4-10 2-5 2-20 5-22 2h-18l-8-1v-1l22-2-1-5 18-1 1-2 14-1 20-4z" fill="#A26B7B"/>
<path transform="translate(708,337)" d="m0 0h1v110l15-2 30-6 14-3h5v-6h1v5l8-2h8l-3 3h-3v2l-16 1-2-1 2 3 4-1 2 2-3 1-2-1-1 2-15 2-25 5-8 1-10 1-2-3z" fill="#8D4561"/>
<path transform="translate(973,1342)" d="m0 0h6l-2 1v8l1 3 4 1v2l-9 2-10 1h-10l-22-1-5-1 3-3 9-3 19-6z" fill="#944463"/>
<path transform="translate(715,903)" d="m0 0 6 1 5 3v2l5 2 7 5 10 2 5 2 8 1 10 4 9 3v1h-12l-24-4-13-3-9-1-3 1-4-3-3-10 1-5z" fill="#515163"/>
<path transform="translate(1e3 773)" d="m0 0 15 8 12 6 10 8 4 3v2l4 2 1 2-6-2h-2l-2 5 1 5 16 16h-3l-29-29-3-5-5-5-10-9-7-4v-2z" fill="#87767E"/>
<path transform="translate(804,1174)" d="m0 0h11l19 5 4 3v18l-2 3-5-5h-9l-15-3-8-3 2-1 1-2h18l1-4-1-5-4-2-12-3z" fill="#453643"/>
<path transform="translate(1125,1199)" d="m0 0 1 3 3-1 25 2 9 2 17 1 9 3-5 10-1-4-14-1-24-4-21-2-3 1v-2l-5-2-1-4h3l2 3 4-1z" fill="#934463"/>
<path transform="translate(937,684)" d="m0 0 2 2-1 12-4 6h-2l-1 4-8 7-10 3h-8l3 3 27 11 21 8 8 4 9 2 3 3v2l-11-3-16-8-6-2-29-12-12-4v-4l5-7 1 2h7v-2h2l2-4 2-3h2l1-4 3-1 2-5 4-1 2-4z" fill="#5B4551"/>
<path transform="translate(765,1210)" d="m0 0h7l2 4-1 4 10-2-3 7-5 4-10 5-7 3h-7-4l-3 3-2 4-1-5 10-8 8-13 3-5z" fill="#4D424D"/>
<path transform="translate(814,1139)" d="m0 0h15l2 2 1 8 1 5-7 3h-9l-12-2-5-3-1-4 9-5h2v-2z" fill="#5C4652"/>
<path transform="translate(838,1010)" d="m0 0h11l13 3v3 2h-2v4l-11 7h-5l-8-3-10-3v-4l4-2-1-2 14-2-5-2z" fill="#463845"/>
<path transform="translate(1164,1013)" d="m0 0 2 4 2 7-1 3 3 1 2 8 5 2 11 4 25 4 6 3 2 2v6l-2-2-15-3-18-4-20-5-1-1z" fill="#3A404F"/>
<path transform="translate(900,720)" d="m0 0 24 9 8 4 1 2h-2l-2 4-6 1-17-5-18-6-4-4 16-3z" fill="#B5707B"/>
<path transform="translate(812,1159)" d="m0 0h26l1 10-1 9-9-1-8-3-6-1-5-9v-4z" fill="#453643"/>
<path transform="translate(816,831)" d="m0 0 1 2 10 1 9 3h7l1 2 7-3 8 3-1 5-4 2h-12l-44-11-5-2v-1h21l2 1z" fill="#944463"/>
<path transform="translate(1082,487)" d="m0 0h2v3l7 2-2 1-1 4-1 1 6 1-1 2h-2l-2 5-12 4-3 2-5-1-1-2v-7l3-9 4-2 1-2z" fill="#505062"/>
<path transform="translate(1101,371)" d="m0 0h7l7 2-1 2h-8l-9 4-23 5-4 1-18 2-10 1v-4-1z" fill="#74727E"/>
<path transform="translate(924,406)" d="m0 0h8v2h-7v2l-10 4-13 3-39 7h-10l-1-2 11-4z" fill="#4B5468"/>
<path transform="translate(596,471)" d="m0 0h2l-1 4-4 2-26 5-6 2-14 2-15 3-2 1-21 3-10 2h-5l1-2 27-7 39-8 18-3 16-1z" fill="#4C4D5A"/>
<path transform="translate(825,958)" d="m0 0h1v9l10 3 3 3 11 2 21 4 12 1 6 3v6l-17-4-12-2-36-8z" fill="#673B52"/>
<path transform="translate(1027,1313)" d="m0 0h2l2 4-1 4-5 4 3 2 17 4 8 3 7-2 2 2-10 5-7 1v-3l-9-3-25-5-3-2v-2h2l1-3 12-6h2v-2z" fill="#4B444F"/>
<path transform="translate(781,517)" d="m0 0h10l-3 14v14l4 3 7 3-3 2-18 3v-11h2l2-13-1-2v-10h-11v-1z" fill="#6A3C53"/>
<path transform="translate(1046,1304)" d="m0 0 9 1 14 1 28 3 1 2-3 1h-12l-8-1-13 1-6 1-2 1h-11-4l-5-1h-5l5-4 4-3z" fill="#4A414C"/>
<path transform="translate(817,1260)" d="m0 0 5 1 2-1 15 8 15 5 5 2-2 2h-29v-1l5-1-8-2-10-4-1-3-3-3 2-1 3 1z" fill="#57747E"/>
<path transform="translate(739,1026)" d="m0 0 5 1 5-1v2l-5 3 4 2 7 2h3l12 2 15 2 9 3v1h-12l-24-3-39-7-3-2 12-2 8-2z" fill="#9A4B69"/>
<path transform="translate(1028,771)" d="m0 0 5 1 12 6 4 4 6 3-4 2-9 1-13-5v2l-5-2-11-8v-3l11 1z" fill="#464F64"/>
<path transform="translate(698,1089)" d="m0 0h24l5 1-3 1-1 2-3 3 1 4-9-3h-17l-15 4-12 5-3-1 5-5 10-5 8-2v2z" fill="#8D4A65"/>
<path transform="translate(933,540)" d="m0 0h5l-1 6-6 9-5 9-1 4-8-1-8 5-6 5-2-1 11-15 5-1 2-5 7-8 3-5z" fill="#6B717C"/>
<path transform="translate(948,739)" d="m0 0 16 7 10 4h6v5l-7 4-10-1-26-10-12-4 4-1 16 4h9l1-2-7-4z" fill="#93717B"/>
<path transform="translate(756,1204)" d="m0 0 9 1-1 5-12 19-3 2 1-6-8 1-5 2 1-3 2-1 4-10h2l2-5 2-3 6-1z" fill="#A3717D"/>
<path transform="translate(895,1346)" d="m0 0 6 1-1 4 2 3 6 2v1l-16 4h-32l-9-1v-1l19-1 12-3 2-5 7-3z" fill="#944463"/>
<path transform="translate(1071,1279)" d="m0 0 1 4 11 2 10 4 17 1 7 2 3 3-2 4-5 2v-4l-3-1-18-2-17-3-11-1v-3z" fill="#3A404E"/>
<path transform="translate(1077,819)" d="m0 0 3 1 4 4 8 6 7 6 2-2v-2l9 2 4 4v2l-3 1-4-1-2-1 1-2h-3l-2 4-2 1v3l-6 1-9-11-7-6-1-3 2-1-2-5z" fill="#454959"/>
<path transform="translate(1142,912)" d="m0 0 5 1h12l9 1 7 1 12 1-1 5-7 1-4-1h-9l-17 3-1-2h-2v-2l-3 1-2-4z" fill="#424A5A"/>
<path transform="translate(975,745)" d="m0 0 10 3 27 11 25 12 21 12-3 1-16-8-9-4-18-7-14-7-10-4-6-2-7-3-2-3z" fill="#56757F"/>
<path transform="translate(745,1224)" d="m0 0h5l1 4-8 9h-2l1 8-10 2h-2l-4-4v-5l2-3 4-1v-3l10-6z" fill="#C27E93"/>
<path transform="translate(811,1027)" d="m0 0 9 1 3 1 5 5v2l3 1-17 4h-6v-2l-6-1-2-1v-2l-4 1 1-5 13-3z" fill="#944564"/>
<path transform="translate(984,939)" d="m0 0 5 5 4 6v3l4 2 5 11 2 4h2l2 5 2-2 5 12 5 16v11l-3-1-8-24-9-19-10-17-6-9z" fill="#A57380"/>
<path transform="translate(967,475)" d="m0 0 3 1v2l-10 4-6 2-9 1-7-1h-17l-20 2h-10v-1l63-9z" fill="#B5707B"/>
<path transform="translate(858,1274)" d="m0 0h13l1 2-1 2-7 3-1 3-19 2h-18l-8-1v-1l22-2-1-5 18-1z" fill="#9A707B"/>
<path transform="translate(743,1242)" d="m0 0 5 2 6 3 3 5 9 4 9 5 3 2 5 1v2l7 1 7 2h12l2-2 6 5 2 1v2l-12-1-19-4-18-6-11-6-11-8-5-7z" fill="#644653"/>
<path transform="translate(936,1352)" d="m0 0 2 1-9 3-2 1 8 1 18 1-1 2-15 1h-43l-2-2 8-2 13-3 16-2z" fill="#703F57"/>
<path transform="translate(1121,1169)" d="m0 0 1 3-6 19v13l5 3-2 5-4 8-2 1-7-6v-8l5-12h2l4-17z" fill="#A1727D"/>
<path transform="translate(1124,1207)" d="m0 0 29 3 16 3 14 1v3l-4 1-50-5-8 1-2 3h-2l2-6 1-2z" fill="#653C52"/>
<path transform="translate(765,1208)" d="m0 0 23 1 32 1h12v3l-1 1h-19l-26-2-1 3-7 3h-5l-1-7h-9z" fill="#673B52"/>
<path transform="translate(1091,1296)" d="m0 0h17l3 2-1 4-7 5-11 1-5-3-8-1 4-4 4-1 2 1z" fill="#673C52"/>
<path transform="translate(1124,1212)" d="m0 0 26 2 29 3h4l-1 6-2 1-1-2-20-2-12-2-28-1 2-4z" fill="#4A424C"/>
<path transform="translate(833,999)" d="m0 0 9 1 31 6 5 2-5 5-10 7-3 1 1-5 1-2-27-6-3-2h8l7 2 14 2 4-2-32-8z" fill="#683D53"/>
<path transform="translate(779,1171)" d="m0 0 7 1 10 3 5 2-1 4-2 2h-3v2h-7l-7-2-4-2-2-2v-6z" fill="#505062"/>
<path transform="translate(1108,1295)" d="m0 0 6 2 1 3 3-1 1-3 3 1-11 9-11 6-3-2-29-3-13-1-9-1-4 1 3-3 9-1 6 1h17l11 1 4 3 11-1 7-5v-3l-2-1z" fill="#5B4551"/>
<path transform="translate(1161,993)" d="m0 0 30 5 9 1h10l3-1 2-4v9l-1 1-17-1-13-3-10-2-1 3h-7l-2 6-2 1-1-2-1-11z" fill="#3A404F"/>
<path transform="translate(1062,1273)" d="m0 0 7 2 1 4-12 14-9 8-7 5-2-1 12-10 3-3 1-4-3 1-4-4-3-2 4-2h9v-6z" fill="#944463"/>
<path transform="translate(968,636)" d="m0 0h3l-1 4-3 9-4 5-3 10-4 4-4-9-1-4 4-5 5-6 4-1 2-4z" fill="#324352"/>
<path transform="translate(1169,1085)" d="m0 0 3 1 2 4 2 6 7 3 3 2-6 2-1 5-1 1h-8v2h-2l1-4 1-3h2v-2l-4-2-3-4-2-1 2-7z" fill="#453643"/>
<path transform="translate(799,989)" d="m0 0h5l3 3 3 1-1 4-3 3-4 2-2 3-9 2-2-4v-5l4-4z" fill="#EE8EB1"/>
<path transform="translate(790,994)" d="m0 0 1 3-1 1v5l1 4 7-2-4 4-8 5-8 1-4-2v-6l14-11h2z" fill="#BE7D91"/>
<path transform="translate(1032,792)" d="m0 0h7l7 6v2l4 2 1 2-6-2h-2l-2 5 1 5 16 16h-3l-17-17-3-5-3-4-1-9z" fill="#97727D"/>
<path transform="translate(899,723)" d="m0 0h10l6 3 5 5v3l-3 2-6-1-21-7v-1l7-2z" fill="#D66C76"/>
<path transform="translate(773,1180)" d="m0 0 2 4 11 2 3 1h14l9-2 7-2 4 3-3 3-9 1h-9l-3 1v2l-16-2-10-4-1-6z" fill="#5C4652"/>
<path transform="translate(725,932)" d="m0 0 9 1 15 3 6 2 14 2-1 2-4 1-5 2-4-1-8-3-1 2-9-3-5-3v-2l-3 2 3 2-1 2-4-2z" fill="#474F64"/>
<path transform="translate(1159,1122)" d="m0 0 4 1 5 10v3l5 2 3 2 10 1 5 2v2h-11l-10-3-4-2-2-3-8-4-1-1v-6l3-1z" fill="#5C4652"/>
<path transform="translate(1124,378)" d="m0 0 10 3 16 8-1 4-3-1-6 2h-6l-5-5v-2h-3z" fill="#434C5C"/>
<path transform="translate(824,1023)" d="m0 0 7 1 12 3 4 3-8 4-5 2h-6l-5-5v-2l-6-1 2-2 5-1z" fill="#6A3E54"/>
<path transform="translate(813,918)" d="m0 0 1 2-5 6-10 7h-2v2l-3 3-7 3-3 3-10 5-14 4-2-1-1 2h-11v-1l18-4 17-8 7-4 5-4 4-4 11-7z" fill="#5C4453"/>
<path transform="translate(708,530)" d="m0 0 4 1h-3l2 6 5 4 2 5v5l-2 4-6 6-1 16h-1z" fill="#6D4655"/>
<path transform="translate(976,1347)" d="m0 0h24l8 3v1h-6-3l-1 2-6 3-10 1v-2l-4-1-2-3z" fill="#693D53"/>
<path transform="translate(963,906)" d="m0 0 4 2 2 4 3 1 6 7v2h2l3 5 9 11 10 17 2 5-1 3-10-18-6-9h-3l-1 4-10-13-1-2 4 1 3 2-3-6-1-3-4-2-5-6-3-3z" fill="#A67482"/>
<path transform="translate(792,1009)" d="m0 0 2 1v4l4 2-5 1-2 4-10 2-8 3h-8l-3-2 15-6 14-8z" fill="#674653"/>
<path transform="translate(805,976)" d="m0 0 1 3 7 2 5 3-2 4-5 6-7-3v-2h-8l4-7h2l2-4z" fill="#BA7584"/>
<path transform="translate(1141,918)" d="m0 0 5 2v5l7 12v11l3 7 1 4-1 4-1 3-3-5-6-22-2-10-3-8z" fill="#4B4151"/>
<path transform="translate(1069,1265)" d="m0 0 7 1 2 2-7 10-3-3-6-1-7 3-10 6-2-1 4-4 17-11z" fill="#93727C"/>
<path transform="translate(967,487)" d="m0 0 1 3-11 16-11 17-3 3h-2l-1 2-9 1h-6l3-2 7-3 9-7 7-9 9-11z" fill="#71727C"/>
<path transform="translate(781,1014)" d="m0 0 3 1-16 8-14 4h-5l2-9 6-1 1 2 12-4 6 2z" fill="#93727C"/>
<path transform="translate(907,711)" d="m0 0 1 4-1 3h-2l3 3 27 11 21 8 8 4 9 2 3 3v2l-11-3-16-8-6-2-29-12-12-4v-4z" fill="#784058"/>
<path transform="translate(819,983)" d="m0 0 14 1 23 5v1h-8l-8-2h-14l-2 2-2-1 1 6 9 2v1l-9-1-11-2 3-7z" fill="#523F4D"/>
<path transform="translate(722,917)" d="m0 0h9l8 3 11 3h8l13 2 9 3v1h-12l-24-4-13-3-9-1-3 1v-4z" fill="#485064"/>
<path transform="translate(741,897)" d="m0 0 6 5 8 3 11 7v2l6 2v2l-9 1-2-1v-2h-2l-3-3-7-5v-2l-2 2-4 1-2-3 2-2z" fill="#453643"/>
<path transform="translate(794,1104)" d="m0 0 12 1 11 8 5 5-1 2-8-1-8-3v-2l-4-2v-2h-2z" fill="#354756"/>
<path transform="translate(773,942)" d="m0 0h6l-4 3-14 6-10 2h-7l-7-4 1-3 17 1 12-3z" fill="#6C717C"/>
<path transform="translate(1e3 761)" d="m0 0 7 3 14 5 2 3-5 2-10-1v2l-5-2-7-6 2-4h2z" fill="#6C717C"/>
<path transform="translate(787,525)" d="m0 0h1v20l4 3 7 3-3 2-18 3v-5l4-4 3-13z" fill="#694A57"/>
<path transform="translate(944,662)" d="m0 0 1 4 5 9v7h-5l-5-1h-2l-2-5 1-5z" fill="#515061"/>
<path transform="translate(825,911)" d="m0 0 6 1 3 3 1 4-4 8-3 7-1 18h-1l-1-20z" fill="#6D4756"/>
<path transform="translate(1033,543)" d="m0 0v3l-9 13-6 10-4 4-4 7-6 9-9 7v-3l10-13 14-19 13-17z" fill="#454452"/>
<path transform="translate(902,467)" d="m0 0 4 3h8l2-1h6l10 4h15v2l-16 1-11 1h-7l-9-5z" fill="#6C717C"/>
<path transform="translate(752,437)" d="m0 0h6l-1 2-24 5-14 3h-10v-4l14-2 7-3 3 3z" fill="#50424D"/>
<path transform="translate(759,1116)" d="m0 0 4 1 1 3 24 6 5 2 20 4v1h-9l-26-4-13-4-2 1z" fill="#6E707B"/>
<path transform="translate(984,934)" d="m0 0 5 3 9 15 6 11 6 10-2 4-3-6-3-2-5-12-4-4-6-11-3-3-1-4z" fill="#944463"/>
<path transform="translate(734,1098)" d="m0 0 4 1 8 3 4 2 2 4-6 1-5 2-6-1-5-5 3-1-1-5z" fill="#9D717C"/>
<path transform="translate(709,409)" d="m0 0 2 4 1 4-1 5 3 9 3 1 1-5 1 4-1 6 1 3-1 3h-9z" fill="#515163"/>
<path transform="translate(957,903)" d="m0 0 6 3v2l4 2 6 8 5 5 2 7-5-4-5-3-12-13-2-2z" fill="#986B79"/>
<path transform="translate(949,475)" d="m0 0 4 1-6 2-42 6-6 1h-8v2l-11 2h-7l2-3 43-7 18-2z" fill="#9E727D"/>
<path transform="translate(682,266)" d="m0 0h2v2l-14 7h-2v2h-4v2l-18 8-16 8h-2l1-3 48-24z" fill="#97546D"/>
<path transform="translate(724,1091)" d="m0 0h10l4 1v2l-6 2 2 8-1 2-12-6-2-4z" fill="#495165"/>
<path transform="translate(802,1273)" d="m0 0 12 1 8 2v7l-9 1-4-1v-2l-5-1z" fill="#94707B"/>
<path transform="translate(766,1131)" d="m0 0 3 4 10 1 4 1 2 2v3h-2v2l-9 2h-2l-1 7h-1l-3-16z" fill="#4C5468"/>
<path transform="translate(1058,1274)" d="m0 0 2 4-1 4h-9l-16 9-14 11-5 6-1-2 6-8 11-9 10-6 8-3z" fill="#9B707B"/>
<path transform="translate(838,1159)" d="m0 0 2 1 1 3v29l-4 18-5 9-1-3 2-4 4-12z" fill="#414B5B"/>
<path transform="translate(596,471)" d="m0 0h2l-1 4-4 2-26 5-6 2-14 2-15 3-2 1h-10l4-2 46-9 9-2v-2l16-1z" fill="#944463"/>
<path transform="translate(1096,844)" d="m0 0 4 1v5l5 2 10 10 2 9-4-3-2 1-2-4-2-1-4-7-5-6-4-3v-3z" fill="#554E60"/>
<path transform="translate(1167,422)" d="m0 0 3 3 2 8v3h-2l3 6 3 3-6-2-7-3v-2l-4-1-13-5 3-1 11 3 8-3z" fill="#434958"/>
<path transform="translate(1116,1217)" d="m0 0 1 4-8 13-10 13-4 7-3 1-2 5-3 1-2 5-4 2-1 3-1-3 7-8 10-13 7-10 8-11 4-8z" fill="#4B4F62"/>
<path transform="translate(754,1209)" d="m0 0 9 1-6 11-4 5-1-5-4-1-1-4 4-6z" fill="#93727C"/>
<path transform="translate(1217,1105)" d="m0 0h2l-4 31-3 10h-2v-2h-2v-6l5-15h1l1-12z" fill="#4B3C49"/>
<path transform="translate(822,1275)" d="m0 0h6v2h11l1 3 2 2-5 1-10 1h-9v-3l3-2z" fill="#6B4856"/>
<path transform="translate(1114,1186)" d="m0 0 1 4-2 5h-2l-1 4-3 8v8l6 5v4l-4 1-7-5v-7l5-13z" fill="#76737C"/>
<path transform="translate(730,935)" d="m0 0h2l2 3 12 5 1-3 8 3 4 1 4-2v-1h10v2l-14 4-11-1-16-5v-2l-4-2z" fill="#4D5063"/>
<path transform="translate(969,600)" d="m0 0v3l-5 5-1 3-4 2-7 8-5 6-4 4-2-1 4-8h2l2-5 3-5 4-3h3z" fill="#6C717C"/>
<path transform="translate(847,423)" d="m0 0m-13 1h13l-1 4-11 2-15 1-3-2 1-2z" fill="#6D6A76"/>
<path transform="translate(728,1236)" d="m0 0 7 1 5 2 2 6-10 2h-2l-4-4v-5z" fill="#F190B4"/>
<path transform="translate(832,1006)" d="m0 0h8l7 2 14 2 4-1 3 3 2 1-1 3-9 5 1-5 1-2-27-6z" fill="#673C52"/>
<path transform="translate(1129,897)" d="m0 0h2l4 6 5 5 2 4v9l4 11-1 4-8-20-8-17z" fill="#604352"/>
<path transform="translate(1065,1286)" d="m0 0 6 2 8 1 19 3 16 2 4 2v3l-5 2v-4l-3-1-18-2-17-3-11-1v-3z" fill="#49414C"/>
<path transform="translate(999,950)" d="m0 0 4 4 9 17 9 22-1 3-3-2-7-20-6-10-4-10z" fill="#86737D"/>
<path transform="translate(778,910)" d="m0 0h1l4 18v4l-9-2-2-2h5l-7-3 2-1 2 1-1-5 4-5z" fill="#414554"/>
<path transform="translate(774,694)" d="m0 0h1v51l4-4 2 1-7 11-2 1 2-5 1-2h-2v-5h-2v-2h2l-2-11 2-7z" fill="#4E4650"/>
<path transform="translate(792,1131)" d="m0 0h7l5 1 21 2 9 2v2l-3 1-8-1-13-1-2-2-14-2z" fill="#485065"/>
<path transform="translate(1061,379)" d="m0 0 4 1-1 1 2 2-9 3-12 2h-3v-4-1z" fill="#79737E"/>
<path transform="translate(1161,993)" d="m0 0 13 2 1 3-3 3h-6l-2 6-2 1-1-2-1-11z" fill="#3D414F"/>
<path transform="translate(909,869)" d="m0 0 4 1 4 2 6 1 2 2-2 1-2-1 4 4 1-3 4 2 5 5-3 3-4-2-19-13z" fill="#B8717E"/>
<path transform="translate(1101,371)" d="m0 0h7l7 2-1 2h-8l-9 4-6 1 1-4-2-1 1-2z" fill="#74737F"/>
<path transform="translate(1027,1313)" d="m0 0h2l2 4-1 4-5 4-9 1-3-1 2-3 5-1v-2l5-1v-4z" fill="#464959"/>
<path transform="translate(1109,1199)" d="m0 0 1 4-1 7 9 3-2 5-3 3-7-6v-8z" fill="#92727C"/>
<path transform="translate(1195,960)" d="m0 0 5 1 4 7-1 2-5-2-8 1-5-3 1-4h4z" fill="#3A404F"/>
<path transform="translate(922,1341)" d="m0 0 2 1-10 4h-4v4h-2v2l-3 2-5-1-1-3 2-3-4-1 2-1 12-1z" fill="#956E7A"/>
<path transform="translate(1026,526)" d="m0 0v3l-10 14-10 13-12 16-5 5 2-5 8-10 10-14 13-17z" fill="#8E737D"/>
<path transform="translate(1124,1207)" d="m0 0 19 2v1l-6 1 3 2h-16l-4 2-1 2h-2l2-6 1-2z" fill="#664654"/>
<path transform="translate(1135,955)" d="m0 0 2 2 3 6h10l3-2 1 3-1 4-5 2-7-1-2-1-4-10z" fill="#B1707B"/>
<path transform="translate(1026,1333)" d="m0 0 8 1 2 3-4 4h-4l-7 1-5-1 3-2h3v-2h2z" fill="#673B52"/>
<path transform="translate(792,1009)" d="m0 0 2 1v4l4 2-5 1-2 4-8 1v-4h2l1-5z" fill="#594551"/>
<path transform="translate(1032,792)" d="m0 0h7l7 6v2l-8-2-1 1-1 7-4-4-1-9z" fill="#90727C"/>
<path transform="translate(831,1146)" d="m0 0h3l3 10 1-5 2 4v5h-9l-9-1 4-3 7-2-2-5z" fill="#4A454F"/>
<path transform="translate(746,936)" d="m0 0 9 2 14 2-1 2-4 1-5 2-4-1-9-4-2-3z" fill="#3E4859"/>
<path transform="translate(1126,420)" d="m0 0 17 8 3 3-11-1-9-2-1-4z" fill="#4A424C"/>
<path transform="translate(596,308)" d="m0 0h3l-1 3-32 15-5 1 3-3z" fill="#994E6A"/>
<path transform="translate(522,486)" d="m0 0h4v2l-6 1v2l-21 4h-5l1-2z" fill="#555262"/>
<path transform="translate(1108,1295)" d="m0 0 6 2 1 3 3-1 1-3 3 1-11 9-11 6-2-2h3v-2h2l1-3 6-4v-3l-2-1z" fill="#544E5B"/>
<path transform="translate(788,1148)" d="m0 0h9l-2 3h-2v2l-12 2-9-3 1-3 1 1h11z" fill="#515163"/>
<path transform="translate(792,991)" d="m0 0v3h-2v2l-15 11-1 4h-7l-7 1 3-3 6-2 8-5 5-4z" fill="#B6707B"/>
<path transform="translate(724,949)" d="m0 0 10 3 3 1h20v3l-5 1h-13l-11-4-4-2z" fill="#AA707B"/>
<path transform="translate(785,941)" d="m0 0 1 2-12 6-14 4-2-1-1 2h-11v-1l18-4 13-6z" fill="#6F4656"/>
<path transform="translate(953,1334)" d="m0 0 9 2-1 3-8 2-4 2-5-1v-3h3l1-3z" fill="#6F717B"/>
<path transform="translate(804,980)" d="m0 0 5 1 5 3 2 4-2 2h-2l-7-1-2-6z" fill="#97727C"/>
<path transform="translate(1126,526)" d="m0 0 2 1-13 17-5 2-1-2 3-5 3-3h2v-2l8-7z" fill="#3D4A59"/>
<path transform="translate(905,1269)" d="m0 0 6 1-1 2-13 4-6 1-5 2h-5l3-1 1-2 4-2h5v-2l6-1z" fill="#944463"/>
<path transform="translate(1068,496)" d="m0 0 1 2-2 5-5 5-4 2-1 4-10 13-7 9v-3l14-19 3-5 5-5z" fill="#594551"/>
<path transform="translate(773,430)" d="m0 0h1v5l8-2h8l-3 3h-3v2l-16 1-2-2 7-1z" fill="#944C68"/>
<path transform="translate(738,1092)" d="m0 0 18 2 8 1-2 2-11 1-16-3 3-1z" fill="#4A5367"/>
<path transform="translate(1100,455)" d="m0 0v3l-2 8h-3v2l-5 3-6 5 2-5 5-7h2l2-5z" fill="#5F4652"/>
<path transform="translate(873,1357)" d="m0 0h12l-3 3-3 1h-19l-9-1v-1l19-1z" fill="#AF536C"/>
<path transform="translate(1062,1289)" d="m0 0 18 2 18 3 10 1v1h-20l-14-4-12-1z" fill="#5C4652"/>
<path transform="translate(955,503)" d="m0 0v3l-7 10-12 12-11 1 3-2 7-3 9-7 7-9z" fill="#95727D"/>
<path transform="translate(1220,1067)" d="m0 0h1v23l-1 7h-1l-1-14-3-7 4-4z" fill="#3A404F"/>
<path transform="translate(984,939)" d="m0 0 5 5 4 6v3l4 2 4 8-2 4-9-16-6-9z" fill="#C67586"/>
<path transform="translate(714,929)" d="m0 0 6 1-1 6-1 2 2 1-4 4-2-1v-6l-1-4-3-1z" fill="#B6727E"/>
<path transform="translate(949,738)" d="m0 0 7 2 8 4 9 2 3 3v2l-11-3-16-8z" fill="#644653"/>
<path transform="translate(808,1250)" d="m0 0 7 3 8 6-1 3-10-4h-3-1z" fill="#394B59"/>
<path transform="translate(754,1247)" d="m0 0 8 3v2l5 2 9 4-1 4-9-5-9-4-3-4z" fill="#4A424C"/>
<path transform="translate(753,769)" d="m0 0 4 1 2 5-2 7h-3l-3-2z" fill="#453643"/>
<path transform="translate(682,266)" d="m0 0h2v2l-14 7h-2v2h-4v2l-9 1 4-3z" fill="#916073"/>
<path transform="translate(832,1138)" d="m0 0 3 1 3 8v11l-2-2-2-10-3-1-1-4z" fill="#45404D"/>
<path transform="translate(876,848)" d="m0 0 7 1 4 2 5 6-1 2h-4l-3-3-8-5z" fill="#944564"/>
<path transform="translate(1014,1308)" d="m0 0 4 5 7 2-4 3-8 4-1-12z" fill="#934563"/>
<path transform="translate(771,827)" d="m0 0 8 2v1h-5v15l-2-1-2-6-1-1v-7l2-2z" fill="#534551"/>
<path transform="translate(1021,1331)" d="m0 0 12 1 12 5v3l2 1-9 2 2-3-1-2-8-4-10-2z" fill="#5D4955"/>
<path transform="translate(1058,1274)" d="m0 0 2 4-1 4h-9l-8 4-1-3 8-3z" fill="#A2717D"/>
<path transform="translate(815,837)" d="m0 0 10 2 14 3 5 2v1l-10-1-17-4-2-1z" fill="#694457"/>
<path transform="translate(1e3 589)" d="m0 0 1 2-4 5h-2l-2 5-7 6h-2l2-4 5-7z" fill="#424655"/>
<path transform="translate(774,1211)" d="m0 0 12 1-1 3-7 3h-5v-6z" fill="#5B4551"/>
<path transform="translate(769,1196)" d="m0 0 1 3 4 1 6 2-1 3-7 1-4-1z" fill="#B2455F"/>
<path transform="translate(908,415)" d="m0 0 5 1-1 3-3-1-7 2h-3v2h-2v-2h-10l4-2z" fill="#68717C"/>
<path transform="translate(900,720)" d="m0 0 5 2v1l-7 2-2 2-4 1 5 2-3 1-8-3-2-3 16-3z" fill="#B66F7A"/>
<path transform="translate(1121,1169)" d="m0 0 1 3-6 19-1 12-3-3 3-15 4-12z" fill="#A5717C"/>
<path transform="translate(1022,1127)" d="m0 0h1l-1 10-6 24-2 3-1-3 5-18z" fill="#8A777F"/>
<path transform="translate(1097,1248)" d="m0 0v3l-3 4h-2l-2 5-3 1-2 5-4 2-1 3-1-3 7-8 8-10z" fill="#4B4855"/>
<path transform="translate(695,1094)" d="m0 0m-2 1h2v2l-15 4-12 5-3-1 8-5z" fill="#944463"/>
<path transform="translate(1149,990)" d="m0 0 10 2 1 2-1 3h-2v-2l-9 1-2 1v-6z" fill="#B4707B"/>
<path transform="translate(847,423)" d="m0 0m-13 1h13l-1 3-14 2-5-1 4-2h3z" fill="#485165"/>
<path transform="translate(1013,772)" d="m0 0h5l1 2 3 2 3 3v2l3 1-1 3-10-7-5-5z" fill="#49424C"/>
<path transform="translate(747,1247)" d="m0 0 4 2 11 8 14 7-3 1-14-7-11-8z" fill="#6A4654"/>
<path transform="translate(1011,596)" d="m0 0 2 1-7 11-4 3 1-8 5-5z" fill="#424A5A"/>
<path transform="translate(868,1275)" d="m0 0 3 1v2l-7 3-1 3h-10l-1-2 13-5z" fill="#944463"/>
<path transform="translate(988,934)" d="m0 0 4 4 10 17 2 5-1 3-10-18-5-8z" fill="#97737D"/>
<path transform="translate(813,918)" d="m0 0 1 2-5 6-8 5-7 1 5-4 13-9z" fill="#73576A"/>
<path transform="translate(818,1270)" d="m0 0 9 3 19 2v1h-27z" fill="#4A4E62"/>
<path transform="translate(919,669)" d="m0 0v3l-13 18-7 9v-3l4-5 4-7 9-11z" fill="#9F717D"/>
<path transform="translate(1e3 965)" d="m0 0 2 1 2 4h2l5 12-1 2-3-1-7-15z" fill="#B6727F"/>
<path transform="translate(909,869)" d="m0 0 4 1 4 2 6 1 2 2-2 1-2-1 2 5-11-7-3-2z" fill="#BC7482"/>
<path transform="translate(933,677)" d="m0 0 1 2-1 2h-2l-2 5-7 9-8 10v-3l12-16 4-6h2z" fill="#6F4656"/>
<path transform="translate(925,544)" d="m0 0 2 1-2 5-7 8-1 2h-2l-1 2-1-2 10-14z" fill="#58747E"/>
<path transform="translate(887,484)" d="m0 0h6l-2 1v2l-11 2h-7l2-3z" fill="#A4717C"/>
<path transform="translate(734,1098)" d="m0 0 4 1 1 1v5l-2 2h-6l-1-2 3-1-1-5z" fill="#71717C"/>
<path transform="translate(770,924)" d="m0 0 9 1 2 1 1-2 1 8-9-2-2-2h5l-7-3z" fill="#414C5B"/>
<path transform="translate(920,727)" d="m0 0 6 1 20 8 3 1-1 3-24-10z" fill="#724257"/>
<path transform="translate(810,1267)" d="m0 0 9 6v2l-12-1v-2l-3-2 5-1z" fill="#50434D"/>
<path transform="translate(810,1155)" d="m0 0 14 2v1h-29l-1-2z" fill="#453643"/>
<path transform="translate(1126,387)" d="m0 0 2 4 1 10-1 12-2-1z" fill="#3F4756"/>
<path transform="translate(1065,379)" d="m0 0h5v3h3l1-2 4 1-1 2-7 2h-8l3-2-2-2z" fill="#6C717C"/>
<path transform="translate(1078,1267)" d="m0 0 2 1-2 5-8 8-6 7v-3l10-12z" fill="#634653"/>
<path transform="translate(743,1242)" d="m0 0 5 2 6 3 3 5 4 4-5-2-7-6-5-3z" fill="#634554"/>
<path transform="translate(785,1099)" d="m0 0 8 1 11 4-4 1-10-1-3-2v-2z" fill="#54757F"/>
<path transform="translate(722,1092)" d="m0 0 5 1 1 3h2l-1 2h-6v2l-4-2 2-4z" fill="#52434E"/>
<path transform="translate(963,906)" d="m0 0 4 2 2 4 3 1 6 7v2h2v3h-2l-3-4v-2l-4-2-5-6-3-3z" fill="#95727C"/>
<path transform="translate(825,958)" d="m0 0h1v9l10 3-2 3-6-1-4-2z" fill="#6E4656"/>
<path transform="translate(971,917)" d="m0 0 4 2 4 6 1 5-7-5-4-7z" fill="#944463"/>
<path transform="translate(1066,837)" d="m0 0 4 1v2h2l4 5 8 11-1 2-9-11-6-7-2-1z" fill="#A6717C"/>
<path transform="translate(989,1322)" d="m0 0h5l1 2-3 3-7 1-2-3z" fill="#944463"/>
<path transform="translate(829,1220)" d="m0 0 2 1-7 11-8 9-1-2 10-13z" fill="#3A4C5A"/>
<path transform="translate(957,903)" d="m0 0 6 3v2l4 2 1 3-4-1v-2l-3 1-5-3z" fill="#954765"/>
<path transform="translate(964,1355)" d="m0 0h11l-2 4h-12z" fill="#6D4157"/>
<path transform="translate(777,1247)" d="m0 0 9 2 5 1 6-1 7 1-3 2h-15l-9-3z" fill="#4A424C"/>
<path transform="translate(969,481)" d="m0 0h2l-2 5-6 8-1-2 1-4-1-3 4-3z" fill="#654152"/>
<path transform="translate(802,985)" d="m0 0h2l1 4h7l2-1-1 4-3 2-6-3v-2l-4-1z" fill="#BE7D91"/>
<path transform="translate(925,710)" d="m0 0 2 1-4 4-10 3h-5l4-3 9-3 2 1v-2z" fill="#4A424C"/>
<path transform="translate(808,430)" d="m0 0 5 2 1 2h-8l-5 1h-3l1-3z" fill="#944463"/>
<path transform="translate(1080,1322)" d="m0 0 2 1-10 6-7 3 2-4 5-3z" fill="#384B5A"/>
<path transform="translate(734,1028)" d="m0 0m-6 1h6l-3 3h-2v2l-10-1-3-2z" fill="#9C4C6A"/>
<path transform="translate(730,949)" d="m0 0 13 2 3 3h-9l-9-3z" fill="#4E434E"/>
<path transform="translate(724,933)" d="m0 0 3 3 1 3 3 2-2 2-3-1v-2l-4 1-2-1v2h-2l2-4h4z" fill="#74717C"/>
<path transform="translate(719,926)" d="m0 0 2 2 3 5v5h-6l2-8-4-2h3z" fill="#CE839C"/>
<path transform="translate(573,476)" d="m0 0h10l-4 2-13 3h-5l3-3z" fill="#574353"/>
<path transform="translate(808,1135)" d="m0 0 26 1v2l-3 1-8-1-13-1z" fill="#505163"/>
<path transform="translate(669,1100)" d="m0 0v3l-8 7-9 9-2-1 10-11z" fill="#CA798B"/>
<path transform="translate(761,1255)" d="m0 0 9 3 8 5-3 1-14-7z" fill="#5C4652"/>
<path transform="translate(712,529)" d="m0 0h7v2h-2l1 3-7 1-2-4h3z" fill="#594150"/>
<path transform="translate(854,420)" d="m0 0 3 1-4 2 1 2-7 1v-2h-8v-1z" fill="#5A6576"/>
<path transform="translate(1055,1292)" d="m0 0h2l-2 4-10 8-5 2 5-5 7-6z" fill="#A14461"/>
<path transform="translate(804 1e3)" d="m0 0 10 1 6 2v1l-12 1v-2h-4l-2-1z" fill="#453744"/>
<path transform="translate(823,969)" d="m0 0h1v8l8 2v2l-7-1-6 2z" fill="#B85267"/>
<path transform="translate(730,935)" d="m0 0h2l2 3 11 5-3 1-10-3v-2l-4-2z" fill="#515163"/>
<path transform="translate(978,590)" d="m0 0v3l-10 14-4 4 2-5 7-10z" fill="#90737D"/>
<path transform="translate(596,471)" d="m0 0h2l-1 4-4 2-14-1v-1l16-1z" fill="#8F5069"/>
<path transform="translate(833,999)" d="m0 0 9 1 15 3 1 2h-6l-15-4z" fill="#673B52"/>
<path transform="translate(1129,897)" d="m0 0h2l5 9 1 8-3-4-5-11z" fill="#7A455A"/>
<path transform="translate(974,621)" d="m0 0 1 4-3 5-6 5v-3z" fill="#44414E"/>
<path transform="translate(967,487)" d="m0 0 1 3-10 15h-2l1-4z" fill="#77717C"/>
<path transform="translate(502,491)" d="m0 0h12v1l-15 3h-5l1-2z" fill="#7B4E62"/>
<path transform="translate(596,308)" d="m0 0h3l-1 3-11 5-3-1 4-3z" fill="#AA5874"/>
<path transform="translate(1116,1217)" d="m0 0 1 4-8 13-2 2-1-3 6-9z" fill="#504652"/>
<path transform="translate(727,1097)" d="m0 0h2l3 7-6-1-3-2v-3z" fill="#514E60"/>
<path transform="translate(681,1096)" d="m0 0h8l-4 2-15 4 1-3 4-2z" fill="#615765"/>
<path transform="translate(1119,880)" d="m0 0h2l2 3v3l3 1 3 6-1 4-9-15z" fill="#7D455B"/>
<path transform="translate(785,941)" d="m0 0 1 2-10 5h-5l4-4z" fill="#7D455B"/>
<path transform="translate(964,607)" d="m0 0 1 2-3 6-3 3-1-5 2-2h3z" fill="#7F737D"/>
<path transform="translate(1074,486)" d="m0 0v3l-12 16-1-2 9-13z" fill="#A3717C"/>
<path transform="translate(808,1245)" d="m0 0 4 5 1 2-4-1-1 7h-3l1-7z" fill="#525D6F"/>
<path transform="translate(836,1203)" d="m0 0h2l-1 7-5 9-1-3 2-4z" fill="#505868"/>
<path transform="translate(1217,1105)" d="m0 0h2l-2 14-2 4v-12z" fill="#463844"/>
<path transform="translate(772,1097)" d="m0 0 12 1-1 3h-8l-3-1z" fill="#51707B"/>
<path transform="translate(1e3 582)" d="m0 0 1 4v3l-9 7v-3z" fill="#44414F"/>
<path transform="translate(765,1208)" d="m0 0 17 1v1l-9 2-1-1h-9z" fill="#684754"/>
<path transform="translate(793,832)" d="m0 0h8l5 1 1 4-12-3z" fill="#A04F6A"/>
<path transform="translate(949,738)" d="m0 0 7 2 8 4v2l-5-1-10-5z" fill="#674353"/>
<path transform="translate(799,715)" d="m0 0 1 2-2 5-4 4h-2l-1 3-2-1z" fill="#A97483"/>
<path transform="translate(1033,543)" d="m0 0v3l-9 13-3 1 2-4 9-12z" fill="#4D4551"/>
<path transform="translate(1126,526)" d="m0 0 2 1-8 11-3-2v-2l8-7z" fill="#4C5363"/>
<path transform="translate(745,1093)" d="m0 0 19 2-2 2h-8l-9-3z" fill="#51717C"/>
<path transform="translate(1152,952)" d="m0 0 3 1 2 6-1 4-1 3-2-3z" fill="#4B424C"/>
<path transform="translate(832,1006)" d="m0 0h8l9 3v1l-11-1-6-2z" fill="#663B52"/>
<path transform="translate(1068,496)" d="m0 0 1 2-2 5-5 5-3 2 2-5z" fill="#51434E"/>
<path transform="translate(712,1089)" d="m0 0h10l5 1-3 1-1 2-4 3 1-5-8-1z" fill="#85707B"/>
<path transform="translate(868,1009)" d="m0 0h6l2 2-6 4v-2l-5-2z" fill="#6E4D5A"/>
<path transform="translate(707,776)" d="m0 0h1l1 5 5 1-5 6-2-2z" fill="#453643"/>
<path transform="translate(752,437)" d="m0 0h6l-1 2-9 2h-5v-2z" fill="#54414D"/>
<path transform="translate(997,1350)" d="m0 0h4l7 1-2 2-12 2 1-2h3z" fill="#7B5563"/>
<path transform="translate(756,1204)" d="m0 0 9 1-1 3-14-1v-1l6-1z" fill="#B6707B"/>
<path transform="translate(1161,1006)" d="m0 0 4 2-1 18h-1v-14h-2z" fill="#604354"/>
<path transform="translate(933,883)" d="m0 0 4 1 2 4-5 1-2-2z" fill="#984967"/>
<path transform="translate(779,741)" d="m0 0 2 1-7 11-2 1 2-5 1-2h-2l1-3h2z" fill="#7B4D60"/>
<path transform="translate(743,1217)" d="m0 0 1 2v3l2 2-9 4 1-3 2-1z" fill="#B6707B"/>
<path transform="translate(1010,576)" d="m0 0 1 2-6 9-2-1 2-6z" fill="#3F4454"/>
<path transform="translate(766,1131)" d="m0 0 4 5 1 17h-1l-3-16z" fill="#997683"/>
<path transform="translate(693,1092)" d="m0 0 2 1-4 3-14 1 3-2 8-2v2z" fill="#927B8D"/>
<path transform="translate(799,930)" d="m0 0h2v2l-4 1v2l-4 2-3-1 4-4z" fill="#54424F"/>
<path transform="translate(815,837)" d="m0 0 10 2 3 1v2l-11-2-2-1z" fill="#74485C"/>
<path transform="translate(947,518)" d="m0 0v3l-4 5h-2l-1 2-4 1 2-4 5-3z" fill="#6D717C"/>
<path transform="translate(1038,1306)" d="m0 0 2 1-4 5-7 1 5-4z" fill="#7E4358"/>
<path transform="translate(1097,1248)" d="m0 0v3l-3 4h-2l-2 5-1-4 5-6z" fill="#484B5B"/>
<path transform="translate(673,1100)" d="m0 0 3 1-3 3-5 2-3-1z" fill="#8F4461"/>
<path transform="translate(737,1098)" d="m0 0 7 1 6 3v2l-9-3-4-2z" fill="#684754"/>
<path transform="translate(863,1014)" d="m0 0 5 1-5 5-3 1 1-5z" fill="#514751"/>
<path transform="translate(957,644)" d="m0 0 1 3-6 8-4 3 2-4z" fill="#474654"/>
<path transform="translate(1146,431)" d="m0 0 11 2 3 2-1 2-13-5z" fill="#474754"/>
<path transform="translate(1106,374)" d="m0 0h8v2l-6 2-5-1z" fill="#4B4B5B"/>
<path transform="translate(1091,373)" d="m0 0 5 1 3 1v2l-7 1v-2l-2-1z" fill="#76737E"/>
<path transform="translate(965,739)" d="m0 0h2l3 3 5 3v1h-5l-5-3z" fill="#444F60"/>
<path transform="translate(975,469)" d="m0 0 5 1-1 5-1-4-5 1h-7v-1z" fill="#7E757E"/>
</svg>
